<svg width="13" height="15" viewBox="0 0 13 15" fill="none" xmlns="http://www.w3.org/2000/svg">
<path fill-rule="evenodd" clip-rule="evenodd" d="M8.23058 0C8.26279 0 8.29437 0.0027121 8.32511 0.00792025L8.42775 0.00855C8.58075 0.00855 8.727 0.0708 8.8335 0.18105L12.6322 4.1388C12.7327 4.24305 12.7891 4.3833 12.7891 4.52805V11.4025C12.8025 13.2843 11.337 14.8218 9.45225 14.8983L3.438 14.899H3.35625C1.51879 14.8575 0.0451218 13.3715 0.000226373 11.5519L0 3.3678C0.0435 1.50705 1.58025 0.00855 3.4275 0.00855L8.13604 0.00792025C8.16678 0.0027121 8.19836 0 8.23058 0ZM7.668 1.13325L3.429 1.13355C2.18625 1.13355 1.15425 2.14005 1.125 3.3813V11.4025C1.09725 12.6873 2.10975 13.7456 3.38175 13.774H9.42975C10.6815 13.7223 11.673 12.682 11.6641 11.407L11.664 5.23725L10.1566 5.238C8.78407 5.23425 7.66808 4.11525 7.66808 2.74425L7.668 1.13325ZM8.09048 9.45607C8.40098 9.45607 8.65298 9.70807 8.65298 10.0186C8.65298 10.3291 8.40098 10.5811 8.09048 10.5811H4.04047C3.72997 10.5811 3.47797 10.3291 3.47797 10.0186C3.47797 9.70807 3.72997 9.45607 4.04047 9.45607H8.09048ZM6.5568 6.64207C6.8673 6.64207 7.1193 6.89407 7.1193 7.20457C7.1193 7.51507 6.8673 7.76707 6.5568 7.76707H4.0398C3.7293 7.76707 3.4773 7.51507 3.4773 7.20457C3.4773 6.89407 3.7293 6.64207 4.0398 6.64207H6.5568ZM8.793 1.764L8.79308 2.74425C8.79308 3.49725 9.40582 4.11075 10.1581 4.113L11.0475 4.11225L8.793 1.764Z" fill="white"/>
</svg>
